<svg width="11" height="15" viewBox="0 0 11 15" fill="none" xmlns="http://www.w3.org/2000/svg">
<path d="M0.8125 14.0625H9.25V13.5891C9.25 13.3313 9.04375 13.125 8.78594 13.125H8.78125V7.96875C8.80234 7.95797 8.90547 7.96359 8.96969 7.96688L9.01562 7.96875C9.14688 7.96875 9.25 8.07188 9.25 8.20312V11.4844C9.25 11.8734 9.56406 12.1875 9.95312 12.1875C10.3422 12.1875 10.6562 11.8734 10.6562 11.4844V4.66875C10.6565 4.63645 10.6494 4.60452 10.6356 4.57531C10.6218 4.5461 10.6016 4.52036 10.5766 4.5L9.1 3.32344C8.96875 3.22031 8.78125 3.31875 8.78125 3.49219V1.87031C8.78125 1.35469 8.36406 0.9375 7.84844 0.9375H2.21406C1.69844 0.9375 1.28125 1.35469 1.28125 1.87031V6.5625H8.78125V3.49219C8.78125 3.525 8.78594 3.55312 8.8 3.58125L9.23125 4.52344C9.24531 4.55156 9.25 4.58438 9.25 4.6125V6.06562C9.25 6.34219 9.45625 6.55781 9.71406 6.55781H10.1875V11.4844C10.1875 11.6156 10.0844 11.7188 9.95312 11.7188C9.82187 11.7188 9.71875 11.6156 9.71875 11.4844V8.20312C9.71904 8.10809 9.70003 8.01399 9.66288 7.92652C9.62572 7.83904 9.5712 7.76002 9.50262 7.69424C9.43403 7.62846 9.3528 7.57728 9.26386 7.54381C9.17491 7.51035 9.0801 7.49528 8.98516 7.49953C8.92422 7.49859 8.79625 7.49625 8.78125 7.5V7.03125H1.28125V13.125C1.02344 13.125 0.8125 13.3359 0.8125 13.5938V14.0625ZM2.70156 5.625C2.43437 5.625 2.21875 5.40938 2.21875 5.14219V2.8125H7.84375V5.14219C7.84375 5.40938 7.62812 5.625 7.36094 5.625H2.70156ZM9.72344 5.8125V5.07656C9.72344 4.88906 9.93906 4.79531 10.0609 4.92656L10.1312 5.00156C10.1687 5.03906 10.1875 5.09531 10.1875 5.15156V5.85703C10.187 5.79911 10.165 5.74342 10.1259 5.70072C10.0868 5.65802 10.0332 5.63133 9.97552 5.62579C9.91786 5.62026 9.86019 5.63628 9.81364 5.67075C9.76709 5.70523 9.73495 5.75573 9.72344 5.8125Z" fill="#E0E0E6"/>
</svg>
