<svg width="20" height="27" viewBox="0 0 20 27" fill="none" xmlns="http://www.w3.org/2000/svg">
<path d="M9.87004 0.888672C8.46745 0.888672 7.12231 1.42521 6.13053 2.38026C5.13876 3.3353 4.58158 4.63062 4.58158 5.98126V13.6202C4.58158 14.9708 5.13876 16.2661 6.13053 17.2212C7.12231 18.1762 8.46745 18.7127 9.87004 18.7127C11.2726 18.7127 12.6178 18.1762 13.6095 17.2212C14.6013 16.2661 15.1585 14.9708 15.1585 13.6202V5.98126C15.1585 4.63062 14.6013 3.3353 13.6095 2.38026C12.6178 1.42521 11.2726 0.888672 9.87004 0.888672ZM10.5311 22.3508C15.3337 22.0242 19.1248 18.1685 19.1248 13.461C19.1248 13.25 19.0378 13.0476 18.8828 12.8984C18.7279 12.7491 18.5177 12.6653 18.2985 12.6653C18.0794 12.6653 17.8692 12.7491 17.7142 12.8984C17.5593 13.0476 17.4722 13.25 17.4722 13.461C17.4722 17.5039 14.0684 20.7816 9.87004 20.7816C5.67166 20.7816 2.26788 17.5039 2.26788 13.461C2.26788 13.25 2.18082 13.0476 2.02585 12.8984C1.87089 12.7491 1.66071 12.6653 1.44156 12.6653C1.2224 12.6653 1.01222 12.7491 0.857258 12.8984C0.702293 13.0476 0.615234 13.25 0.615234 13.461C0.615234 18.0603 4.2332 21.846 8.87846 22.3221V25.5559C8.87846 25.767 8.96551 25.9693 9.12048 26.1186C9.27544 26.2678 9.48562 26.3516 9.70478 26.3516C9.92393 26.3516 10.1341 26.2678 10.2891 26.1186C10.444 25.9693 10.5311 25.767 10.5311 25.5559V22.3508Z" fill="white"/>
</svg>
