<svg width="155" height="182" viewBox="0 0 155 182" fill="none" xmlns="http://www.w3.org/2000/svg">
<path d="M150.632 31.6139C138.106 28.2708 125.868 23.9267 114.038 18.6236C102.399 13.5746 91.1632 7.64259 80.4292 0.879445L77.3889 -1L74.4039 0.934723C63.6698 7.69787 52.4341 13.6299 40.795 18.6789C28.9451 23.9659 16.6892 28.2915 4.14583 31.6139L0 32.6642V78.7658C0 152.783 74.7908 180.477 75.5094 180.753L77.3889 181.417L79.2683 180.753C80.0422 180.753 154.778 152.838 154.778 78.7658V32.6642L150.632 31.6139Z" fill="#C4FF07"/>
<path d="M114.252 90.1261C114.252 69.6219 97.6303 53 77.1261 53C56.6219 53 40 69.6219 40 90.1261C40 110.63 56.6219 127.252 77.1261 127.252C97.6303 127.252 114.252 110.63 114.252 90.1261Z" fill="white"/>
<path d="M99.7256 79.4477C101.817 77.1046 101.614 73.5098 99.2707 71.4178C96.9275 69.3259 93.3324 69.5294 91.2411 71.8724L68.4012 97.4527L61.8109 90.0715C59.7186 87.7283 56.1234 87.5251 53.7805 89.6172C51.4375 91.7086 51.234 95.3037 53.3259 97.6468L64.1585 109.78C65.2376 110.988 66.7807 111.679 68.4012 111.679C70.0209 111.679 71.5641 110.988 72.6431 109.78L99.7256 79.4477Z" fill="#C4FF07"/>
</svg>
