<svg width="38" height="38" viewBox="0 0 38 38" fill="none" xmlns="http://www.w3.org/2000/svg">
<path d="M23.7503 23.7498L29.1004 18.3998C29.4123 18.0879 29.7826 17.8406 30.1901 17.6719C30.5976 17.5032 31.0344 17.4164 31.4754 17.4165H31.667C32.5068 17.4165 33.3123 17.7501 33.9062 18.344C34.5 18.9379 34.8337 19.7433 34.8337 20.5832C34.8337 21.423 34.5 22.2285 33.9062 22.8223C33.3123 23.4162 32.5068 23.7498 31.667 23.7498H6.33366C5.49381 23.7498 4.68835 23.4162 4.09449 22.8223C3.50062 22.2285 3.16699 21.423 3.16699 20.5832C3.16699 19.7433 3.50062 18.9379 4.09449 18.344C4.68835 17.7501 5.49381 17.4165 6.33366 17.4165H13.4824C16.0015 17.4166 18.4175 18.4173 20.1989 20.1984L23.7503 23.7498ZM4.75033 23.7498H33.2503V26.9165C33.2503 28.1763 32.7499 29.3845 31.8591 30.2753C30.9683 31.1661 29.7601 31.6665 28.5003 31.6665H9.50033C8.24055 31.6665 7.03237 31.1661 6.14157 30.2753C5.25077 29.3845 4.75033 28.1763 4.75033 26.9165V23.7498Z" stroke="#C4FF07" stroke-width="2.08333" stroke-linecap="round" stroke-linejoin="round"/>
<path d="M19.0003 6.33325C11.6805 6.33325 5.64962 9.11359 4.84212 15.8333C4.73762 16.7041 5.45962 17.4166 6.33362 17.4166H31.6669C32.5409 17.4166 33.2629 16.7041 33.1584 15.8333C32.3509 9.11359 26.32 6.33325 19.0003 6.33325Z" stroke="#C4FF07" stroke-width="2.08333" stroke-linecap="round" stroke-linejoin="round"/>
</svg>
