<svg width="36" height="33" viewBox="0 0 36 33" fill="none" xmlns="http://www.w3.org/2000/svg">
<path d="M17.5475 2.68433C25.6241 2.68433 32.1711 8.69332 32.1711 16.1062C32.1711 23.5192 25.6241 29.5282 17.5475 29.5282C9.47084 29.5282 2.92383 23.5192 2.92383 16.1062C2.92383 8.69332 9.47084 2.68433 17.5475 2.68433ZM17.5475 8.05309C17.1596 8.05309 16.7877 8.1945 16.5134 8.44621C16.2392 8.69792 16.0851 9.03931 16.0851 9.39528V16.1062C16.0852 16.4622 16.2393 16.8035 16.5136 17.0552L20.9007 21.0817C21.1765 21.3262 21.5459 21.4615 21.9293 21.4585C22.3127 21.4554 22.6795 21.3142 22.9507 21.0654C23.2218 20.8165 23.3756 20.4799 23.3789 20.128C23.3823 19.7761 23.2349 19.437 22.9685 19.1839L19.0099 15.5506V9.39528C19.0099 9.03931 18.8558 8.69792 18.5815 8.44621C18.3073 8.1945 17.9353 8.05309 17.5475 8.05309Z" fill="#ADF910"/>
</svg>
