<svg width="50" height="51" viewBox="0 0 50 51" fill="none" xmlns="http://www.w3.org/2000/svg">
<g clip-path="url(#clip0_931_343)">
<path d="M43.5229 4.86708L43.7437 4.85449L44.0146 4.87127L44.2021 4.90482L44.4583 4.97823L44.6812 5.0747L44.8896 5.19423L45.0771 5.33475L45.2479 5.49203L45.3562 5.61577L45.5271 5.85904L45.6354 6.06037C45.7333 6.27008 45.7958 6.49239 45.8229 6.72307L45.8333 6.94537C45.8333 7.10266 45.8167 7.25785 45.7833 7.40675L45.7104 7.66471L32.1021 45.5753C31.8441 46.1406 31.4304 46.6196 30.9101 46.9553C30.3898 47.2909 29.7847 47.4693 29.1667 47.4691C28.6101 47.4708 28.0625 47.3275 27.5773 47.0529C27.0921 46.7784 26.6857 46.382 26.3979 45.9025L26.2625 45.6361L19.2792 31.5809L5.38333 24.5847C4.86917 24.348 4.42576 23.9795 4.09744 23.5162C3.76913 23.0528 3.56742 22.5108 3.5125 21.9444L3.5 21.6319C3.5 20.4575 4.12708 19.3837 5.25208 18.7588L5.54375 18.612L43.0792 4.96774L43.3 4.90482L43.5229 4.86708Z" fill="#C4FF07"/>
</g>
<defs>
<clipPath id="clip0_931_343">
<rect width="50" height="50.3322" fill="white" transform="translate(0 0.660156)"/>
</clipPath>
</defs>
</svg>
