<svg width="30" height="25" viewBox="0 0 30 25" fill="none" xmlns="http://www.w3.org/2000/svg">
<path d="M6.75 0C7.74456 0 8.69839 0.41155 9.40165 1.14411C10.1049 1.87668 10.5 2.87025 10.5 3.90625C10.5 4.94225 10.1049 5.93582 9.40165 6.66839C8.69839 7.40095 7.74456 7.8125 6.75 7.8125C5.75544 7.8125 4.80161 7.40095 4.09835 6.66839C3.39509 5.93582 3 4.94225 3 3.90625C3 2.87025 3.39509 1.87668 4.09835 1.14411C4.80161 0.41155 5.75544 0 6.75 0ZM24 0C24.9946 0 25.9484 0.41155 26.6517 1.14411C27.3549 1.87668 27.75 2.87025 27.75 3.90625C27.75 4.94225 27.3549 5.93582 26.6517 6.66839C25.9484 7.40095 24.9946 7.8125 24 7.8125C23.0054 7.8125 22.0516 7.40095 21.3483 6.66839C20.6451 5.93582 20.25 4.94225 20.25 3.90625C20.25 2.87025 20.6451 1.87668 21.3483 1.14411C22.0516 0.41155 23.0054 0 24 0ZM0 14.585C0 11.709 2.24062 9.375 5.00156 9.375H7.00312C7.74844 9.375 8.45625 9.5459 9.09375 9.84863C9.03281 10.2002 9.00469 10.5664 9.00469 10.9375C9.00469 12.8027 9.79219 14.4775 11.0344 15.625H0.998437C0.45 15.625 0 15.1563 0 14.585ZM18.9984 15.625H18.9656C20.2125 14.4775 20.9953 12.8027 20.9953 10.9375C20.9953 10.5664 20.9625 10.2051 20.9062 9.84863C21.5438 9.54102 22.2516 9.375 22.9969 9.375H24.9984C27.7594 9.375 30 11.709 30 14.585C30 15.1611 29.55 15.625 29.0016 15.625H18.9984ZM10.5 10.9375C10.5 9.6943 10.9741 8.50201 11.818 7.62294C12.6619 6.74386 13.8065 6.25 15 6.25C16.1935 6.25 17.3381 6.74386 18.182 7.62294C19.0259 8.50201 19.5 9.6943 19.5 10.9375C19.5 12.1807 19.0259 13.373 18.182 14.2521C17.3381 15.1311 16.1935 15.625 15 15.625C13.8065 15.625 12.6619 15.1311 11.818 14.2521C10.9741 13.373 10.5 12.1807 10.5 10.9375ZM6 23.6963C6 20.1025 8.79844 17.1875 12.2484 17.1875H17.7516C21.2016 17.1875 24 20.1025 24 23.6963C24 24.4141 23.4422 25 22.7484 25H7.25156C6.5625 25 6 24.4189 6 23.6963Z" fill="#ADF910"/>
</svg>
