<svg width="26" height="27" viewBox="0 0 26 27" fill="none" xmlns="http://www.w3.org/2000/svg">
<g clip-path="url(#clip0_931_75)">
<path d="M12.9997 13.6516C11.9941 13.6516 11.0296 14.0537 10.3186 14.7695C9.60749 15.4853 9.20801 16.4562 9.20801 17.4685C9.20801 18.4808 9.60749 19.4516 10.3186 20.1674C11.0296 20.8832 11.9941 21.2853 12.9997 21.2853C14.0053 21.2853 14.9697 20.8832 15.6808 20.1674C16.3919 19.4516 16.7913 18.4808 16.7913 17.4685C16.7913 16.4562 16.3919 15.4853 15.6808 14.7695C14.9697 14.0537 14.0053 13.6516 12.9997 13.6516ZM11.3747 17.4685C11.3747 17.0346 11.5459 16.6186 11.8506 16.3118C12.1554 16.005 12.5687 15.8327 12.9997 15.8327C13.4307 15.8327 13.844 16.005 14.1487 16.3118C14.4535 16.6186 14.6247 17.0346 14.6247 17.4685C14.6247 17.9023 14.4535 18.3184 14.1487 18.6252C13.844 18.9319 13.4307 19.1043 12.9997 19.1043C12.5687 19.1043 12.1554 18.9319 11.8506 18.6252C11.5459 18.3184 11.3747 17.9023 11.3747 17.4685Z" fill="#ADF910"/>
<path d="M18.9865 5.59926L15.5426 0.73877L2.8795 10.9221L2.1775 10.9145V10.9254H1.625V24.0118H24.375V10.9254H23.3328L21.2593 4.81953L18.9865 5.59926ZM21.0437 10.9254H10.1801L18.2715 8.14892L19.9203 7.61784L21.0437 10.9254ZM16.8458 6.33428L8.49333 9.2002L15.1082 3.88059L16.8458 6.33428ZM3.79167 19.834V15.1011C4.24872 14.938 4.66387 14.6744 5.00684 14.3293C5.34981 13.9842 5.61196 13.5665 5.77417 13.1065H20.2258C20.388 13.5666 20.6501 13.9846 20.9931 14.3298C21.336 14.6751 21.7512 14.9389 22.2083 15.1021V19.835C21.7512 19.9983 21.336 20.2621 20.9931 20.6074C20.6501 20.9526 20.388 21.3706 20.2258 21.8307H5.77633C5.61403 21.3702 5.35163 20.9519 5.00827 20.6065C4.66491 20.261 4.24927 19.9971 3.79167 19.834Z" fill="#ADF910"/>
</g>
<defs>
<clipPath id="clip0_931_75">
<rect width="26" height="26.1727" fill="white" transform="translate(0 0.0200195)"/>
</clipPath>
</defs>
</svg>
