
<svg id="svg" version="1.1" width="2580" height="1638" xmlns="http://www.w3.org/2000/svg"><path d="M1128.053 279.000 C 1098.591 286.984,1055.249 308.268,1030.861 326.727 L 1011.328 341.511 996.914 337.022 C 986.884 333.898,974.517 332.945,956.256 333.889 C 933.240 335.079,926.880 336.749,904.546 347.466 C 890.539 354.187,872.599 365.747,864.678 373.156 L 850.276 386.627 837.818 370.525 C 812.801 338.194,776.246 318.000,742.735 318.000 C 680.395 318.000,636.209 350.735,577.743 440.232 C 570.461 451.379,558.795 468.557,551.819 478.406 C 544.842 488.254,530.770 511.258,520.548 529.527 C 498.121 569.608,495.178 574.302,474.494 603.000 C 443.173 646.457,405.044 679.221,363.406 698.457 C 347.704 705.711,343.401 706.276,303.000 706.384 L 259.500 706.500 258.601 714.230 C 256.938 728.531,297.924 758.233,336.632 770.779 C 355.284 776.825,400.651 775.557,427.301 768.246 C 440.225 764.700,451.256 762.256,451.815 762.815 C 453.299 764.299,398.733 808.399,383.310 818.180 C 376.069 822.772,357.702 830.569,342.494 835.505 C 302.899 848.358,305.718 853.617,360.250 868.621 C 394.992 878.181,442.175 881.273,476.566 876.244 C 514.265 870.732,556.844 851.479,597.410 821.601 C 616.705 807.389,660.469 762.062,674.937 741.304 L 682.043 731.109 688.565 738.691 C 693.970 744.975,695.383 751.348,696.810 775.887 C 698.917 812.090,706.290 836.669,728.195 880.500 C 753.464 931.060,806.832 993.010,849.000 1020.728 C 914.531 1063.804,968.475 1078.593,1052.439 1076.500 L 1092.379 1075.504 1102.193 1089.002 C 1124.122 1119.164,1217.291 1217.633,1260.000 1255.787 C 1311.020 1301.366,1373.003 1349.678,1392.791 1359.293 C 1409.752 1367.532,1406.433 1369.723,1467.130 1310.216 C 1529.361 1249.204,1608.079 1175.013,1609.120 1176.391 C 1609.581 1177.001,1613.075 1182.680,1616.886 1189.012 C 1626.277 1204.618,1634.032 1211.619,1650.000 1218.903 C 1666.544 1226.450,1702.567 1226.948,1729.103 1219.997 L 1746.705 1215.385 1745.012 1226.443 C 1739.169 1264.609,1739.259 1273.787,1745.604 1286.223 C 1752.908 1300.540,1762.752 1308.216,1785.245 1317.134 C 1798.439 1322.365,1809.975 1323.865,1846.500 1325.096 C 1906.590 1327.121,1926.139 1323.991,1970.828 1305.194 C 2031.782 1279.555,2052.796 1265.093,2119.500 1202.874 C 2142.600 1181.327,2174.352 1155.058,2190.060 1144.499 C 2221.140 1123.606,2269.267 1102.591,2297.371 1097.640 C 2321.987 1093.304,2324.952 1090.959,2315.840 1083.031 C 2295.949 1065.726,2247.474 1051.867,2206.500 1051.771 C 2182.568 1051.715,2162.861 1055.334,2140.611 1063.872 C 2129.938 1067.968,2137.571 1058.374,2160.750 1038.558 C 2189.966 1013.582,2216.387 995.220,2248.837 977.338 C 2261.825 970.181,2272.866 962.175,2273.372 959.547 C 2276.160 945.068,2210.808 937.284,2172.000 947.474 C 2159.625 950.723,2149.199 953.107,2148.831 952.772 C 2148.464 952.437,2149.639 946.839,2151.444 940.331 C 2156.439 922.321,2152.805 860.949,2145.177 834.484 C 2136.923 805.845,2128.485 789.569,2106.576 760.020 C 2083.885 729.416,2051.577 701.985,2025.436 691.128 C 2014.471 686.574,2005.129 682.623,2004.675 682.348 C 2004.221 682.074,2006.363 675.921,2009.435 668.675 C 2036.152 605.659,2030.434 520.255,1994.761 449.504 C 1973.059 406.462,1938.591 365.307,1906.964 344.672 C 1867.143 318.692,1800.981 300.040,1748.548 300.012 C 1721.698 299.998,1664.625 309.249,1641.000 317.445 C 1618.501 325.250,1578.157 345.817,1552.627 362.496 C 1529.751 377.440,1489.420 416.187,1473.133 438.866 C 1467.550 446.640,1462.131 453.000,1461.089 453.000 C 1460.048 453.000,1456.400 447.263,1452.983 440.250 C 1436.544 406.509,1391.273 356.431,1348.641 324.828 C 1329.128 310.363,1293.540 292.586,1263.000 282.047 C 1233.938 272.018,1159.978 270.348,1128.053 279.000 M1242.000 324.492 C 1279.601 333.265,1308.537 348.090,1353.209 381.468 C 1387.806 407.319,1404.403 428.258,1446.767 499.500 C 1461.501 524.279,1464.183 523.972,1480.312 495.653 C 1499.992 461.099,1526.553 430.494,1560.000 403.833 C 1598.619 373.048,1627.315 358.110,1668.188 347.511 C 1704.017 338.221,1766.810 338.261,1802.421 347.596 C 1831.062 355.105,1874.907 375.670,1893.253 390.200 C 1915.265 407.634,1959.225 459.379,1968.269 478.500 C 1990.800 526.141,1986.727 613.120,1959.032 675.729 L 1952.843 689.720 1939.738 684.102 C 1909.746 671.246,1867.014 659.871,1813.425 650.478 C 1758.461 640.844,1753.813 640.505,1678.500 640.656 C 1611.062 640.791,1595.448 641.727,1563.192 647.572 C 1509.418 657.316,1387.261 685.852,1347.000 698.074 C 1328.025 703.835,1292.250 714.573,1267.500 721.938 C 1242.750 729.303,1207.650 740.106,1189.500 745.946 C 1151.676 758.116,1058.669 780.639,1056.172 778.233 C 1055.252 777.347,1048.425 765.676,1041.000 752.297 C 1033.575 738.918,1025.813 727.416,1023.750 726.736 C 1017.017 724.517,1019.641 741.731,1029.076 761.676 C 1034.066 772.223,1037.727 781.273,1037.211 781.789 C 1036.696 782.304,1030.831 783.596,1024.178 784.660 L 1012.082 786.594 994.693 751.243 C 974.725 710.646,966.102 676.194,966.039 636.750 C 965.999 611.530,962.512 605.004,956.926 619.695 C 952.039 632.549,953.585 677.596,959.803 703.500 C 965.886 728.844,979.857 762.756,990.198 777.279 C 997.556 787.611,995.728 792.000,984.068 792.000 C 973.824 792.000,968.960 785.012,951.698 745.500 C 922.815 679.384,920.136 609.184,943.755 537.332 C 954.379 505.012,955.755 498.000,951.473 498.000 C 947.605 498.000,926.535 544.743,921.862 563.691 C 919.582 572.936,916.937 600.075,915.983 624.000 C 914.485 661.583,915.156 671.988,920.911 700.500 C 927.770 734.481,941.098 771.230,951.237 784.120 C 958.711 793.621,958.509 795.000,949.644 795.000 C 943.832 795.000,940.091 791.253,931.824 777.148 C 917.627 752.923,901.640 709.086,895.317 677.041 C 890.719 653.738,890.556 647.489,893.956 624.636 C 898.592 593.479,912.665 538.644,920.672 520.543 C 931.877 495.211,973.672 427.877,987.969 412.123 C 1047.805 346.188,1163.674 306.218,1242.000 324.492 M762.234 356.335 C 779.159 371.457,779.525 398.974,763.125 423.230 C 754.065 436.630,749.626 439.891,687.881 478.500 C 632.730 512.986,610.345 537.026,604.768 567.757 C 602.195 581.939,607.919 595.079,632.535 631.500 C 648.641 655.329,650.161 658.788,645.474 660.949 C 642.554 662.296,635.767 670.748,630.393 679.733 C 625.019 688.718,613.228 705.166,604.191 716.284 C 566.094 763.154,548.478 786.478,550.016 788.016 C 552.675 790.675,611.370 732.177,627.291 711.000 C 635.354 700.275,644.325 685.768,647.226 678.761 C 650.127 671.755,653.221 666.017,654.103 666.011 C 654.985 666.005,658.090 670.035,661.002 674.966 L 666.299 683.931 643.357 718.234 C 616.635 758.190,597.662 778.839,566.774 801.584 C 515.117 839.624,470.965 855.304,417.365 854.645 C 401.489 854.450,384.450 853.422,379.500 852.361 C 370.514 850.435,370.528 850.416,388.500 840.344 C 412.567 826.858,441.113 803.298,469.846 773.211 C 495.342 746.512,519.000 713.457,519.000 704.531 C 519.000 697.235,508.871 697.276,498.463 704.615 C 484.369 714.554,461.128 725.103,435.595 733.150 C 416.024 739.319,405.102 740.924,384.595 740.645 C 370.243 740.450,354.450 739.319,349.500 738.132 L 340.500 735.973 349.500 733.717 C 391.206 723.262,416.277 709.739,448.854 680.127 C 463.755 666.582,481.366 649.425,487.990 642.000 C 503.889 624.179,544.180 564.438,555.693 541.614 C 560.719 531.652,572.477 511.350,581.821 496.500 C 591.166 481.650,605.309 458.942,613.251 446.038 C 628.617 421.071,665.135 381.910,686.289 367.713 C 701.960 357.196,726.690 348.492,741.703 348.210 C 749.905 348.056,755.404 350.232,762.234 356.335 M813.026 392.250 C 823.327 406.688,832.395 420.161,833.176 422.191 C 833.958 424.222,830.607 430.972,825.731 437.191 C 820.855 443.411,813.118 454.493,808.536 461.818 C 793.694 485.551,757.427 528.947,733.168 552.000 C 714.162 570.062,705.275 576.127,688.111 582.750 C 666.684 591.018,638.971 593.744,630.562 588.411 C 619.965 581.690,630.363 543.697,647.308 527.226 C 653.463 521.242,676.078 505.065,697.562 491.276 C 762.600 449.534,769.637 443.557,781.516 419.969 C 789.718 403.682,792.000 395.541,792.000 382.575 C 792.000 373.459,792.517 366.000,793.149 366.000 C 793.780 366.000,802.725 377.813,813.026 392.250 M718.500 377.564 C 688.752 391.710,657.362 419.585,660.518 429.053 C 661.113 430.838,673.052 424.114,687.050 414.112 C 701.047 404.110,720.933 391.556,731.239 386.213 C 763.199 369.647,751.645 361.803,718.500 377.564 M972.044 378.024 C 977.399 380.889,977.433 381.501,972.703 389.743 C 969.110 396.004,964.676 398.925,956.868 400.173 C 930.138 404.447,897.060 422.744,878.078 443.755 C 857.318 466.734,866.350 468.628,894.623 447.225 C 912.367 433.792,954.000 411.958,954.000 416.084 C 954.000 422.856,939.172 439.043,926.146 446.490 C 909.623 455.936,888.000 474.927,888.000 479.993 C 888.000 485.231,896.939 483.258,908.356 475.500 C 914.426 471.375,920.436 468.000,921.712 468.000 C 922.987 468.000,918.026 479.138,910.687 492.750 C 901.886 509.075,894.060 529.984,887.697 554.174 C 878.055 590.828,878.043 590.850,867.275 594.248 C 826.888 606.989,743.169 673.447,718.827 712.090 L 713.416 720.680 704.984 706.090 C 695.720 690.061,694.767 691.943,716.204 683.935 C 727.040 679.887,753.000 657.032,753.000 651.540 C 753.000 645.295,745.035 647.725,730.078 658.535 C 718.384 666.986,692.564 681.000,688.686 681.000 C 685.654 681.000,642.000 612.004,642.000 607.212 C 642.000 606.545,648.539 606.000,656.530 606.000 C 670.864 606.000,695.613 599.008,712.873 590.083 C 736.612 577.807,796.266 512.020,827.656 463.500 C 850.028 428.919,880.061 402.950,916.694 386.510 C 938.651 376.657,962.622 372.981,972.044 378.024 M1602.000 388.443 C 1602.000 393.198,1615.876 398.124,1619.385 394.615 C 1621.877 392.123,1611.579 384.000,1605.927 384.000 C 1603.767 384.000,1602.000 385.999,1602.000 388.443 M727.312 407.510 C 706.598 421.042,692.456 435.000,699.460 435.000 C 706.803 435.000,751.500 406.871,751.500 402.250 C 751.500 394.430,745.257 395.788,727.312 407.510 M1580.000 401.000 C 1575.098 405.902,1578.996 411.562,1591.434 417.605 C 1598.823 421.195,1605.740 423.260,1606.805 422.195 C 1610.351 418.649,1605.316 411.104,1595.351 405.028 C 1584.560 398.449,1582.968 398.032,1580.000 401.000 M1559.000 419.000 C 1555.210 422.790,1557.039 425.510,1569.591 434.740 C 1582.955 444.568,1596.000 446.990,1596.000 439.644 C 1596.000 437.248,1590.019 431.173,1582.709 426.144 C 1569.584 417.113,1562.900 415.100,1559.000 419.000 M1540.419 441.131 C 1537.859 445.274,1543.384 451.600,1558.868 462.253 C 1573.030 471.997,1582.736 473.850,1579.821 466.255 C 1578.819 463.645,1578.000 461.007,1578.000 460.392 C 1578.000 457.861,1549.835 438.000,1546.246 438.000 C 1544.105 438.000,1541.483 439.409,1540.419 441.131 M1525.383 462.189 C 1524.299 463.943,1525.907 468.150,1528.956 471.538 C 1535.986 479.350,1558.556 495.000,1562.791 495.000 C 1570.507 495.000,1564.876 482.521,1552.078 471.255 C 1538.289 459.118,1529.191 456.028,1525.383 462.189 M1513.214 480.462 C 1510.625 484.652,1539.430 513.000,1546.277 513.000 C 1554.103 513.000,1551.715 507.507,1537.089 491.871 C 1523.092 476.907,1517.163 474.073,1513.214 480.462 M1497.000 497.699 C 1497.000 504.079,1528.109 534.000,1534.742 534.000 C 1543.052 534.000,1538.789 524.655,1523.080 508.436 C 1506.707 491.532,1497.000 487.536,1497.000 497.699 M699.239 515.462 C 687.518 521.759,648.668 560.171,646.221 567.881 C 645.221 571.028,645.813 575.013,647.534 576.734 C 649.708 578.908,660.571 570.490,683.082 549.190 C 700.912 532.319,715.895 517.441,716.377 516.127 C 718.241 511.050,708.177 510.660,699.239 515.462 M1482.000 517.024 C 1482.000 521.631,1518.891 558.000,1523.563 558.000 C 1532.444 558.000,1528.467 549.911,1510.993 532.438 C 1492.426 513.870,1482.000 508.328,1482.000 517.024 M870.750 641.256 C 869.380 670.145,870.094 676.643,877.585 703.506 C 887.127 737.722,899.713 767.624,910.558 781.843 C 914.651 787.209,918.000 792.365,918.000 793.300 C 918.000 797.860,856.234 789.743,837.906 782.774 L 830.076 779.797 845.538 768.973 C 854.042 763.020,861.000 756.316,861.000 754.075 C 861.000 746.733,847.358 749.786,832.288 760.500 C 815.267 772.601,810.071 773.366,802.408 764.898 C 796.245 758.088,795.728 758.769,827.898 731.268 C 852.657 710.103,831.541 712.419,805.365 733.740 C 791.824 744.769,787.768 746.712,784.298 743.832 C 781.934 741.870,780.000 738.003,780.000 735.238 C 780.000 728.760,806.604 700.944,828.750 684.268 C 852.968 666.033,851.491 660.236,825.620 671.977 C 818.536 675.192,804.500 685.625,794.428 695.161 L 776.116 712.500 777.940 696.558 C 780.861 671.017,795.440 654.958,845.859 621.751 C 856.507 614.738,866.807 609.000,868.749 609.000 C 871.331 609.000,871.868 617.657,870.750 641.256 M717.000 628.273 C 709.575 632.119,699.128 636.210,693.784 637.364 C 674.173 641.598,678.607 652.945,698.556 649.575 C 711.595 647.372,736.352 632.622,739.121 625.406 C 741.599 618.949,732.797 620.090,717.000 628.273 M618.165 649.066 C 616.687 652.953,611.163 663.145,605.889 671.716 C 595.247 689.013,595.817 693.431,607.689 685.652 C 616.185 680.085,631.607 650.026,628.525 645.040 C 625.367 639.931,620.991 641.632,618.165 649.066 M1794.000 669.343 C 1867.019 679.577,1883.398 683.248,1921.500 697.921 C 1947.052 707.760,2000.615 734.560,2026.194 750.303 C 2046.893 763.043,2077.938 794.568,2087.376 812.433 C 2105.331 846.417,2106.431 872.042,2092.325 927.689 C 2080.729 973.438,2064.228 1005.200,2039.378 1029.611 C 2027.962 1040.825,2018.178 1050.000,2017.636 1050.000 C 2017.094 1050.000,2015.761 1046.458,2014.675 1042.128 C 2013.588 1037.799,2008.438 1025.517,2003.230 1014.835 C 1991.247 990.260,1959.368 959.676,1933.326 947.771 C 1870.263 918.942,1768.807 916.873,1655.527 942.105 C 1640.570 945.437,1598.444 952.823,1561.916 958.518 C 1525.387 964.213,1475.925 972.366,1452.000 976.635 C 1428.075 980.904,1401.750 985.560,1393.500 986.982 C 1363.406 992.167,1255.649 1014.309,1224.495 1021.708 C 1140.815 1041.581,1101.510 1047.068,1040.802 1047.350 C 998.489 1047.546,991.398 1046.769,958.500 1038.328 C 933.251 1031.850,911.301 1023.560,885.000 1010.568 C 850.118 993.339,845.398 989.932,817.390 961.773 C 800.829 945.123,780.304 921.244,771.778 908.710 C 731.212 849.070,714.827 780.181,731.293 738.500 C 736.153 726.198,757.904 690.000,760.436 690.000 C 760.678 690.000,760.948 698.438,761.037 708.750 C 761.220 729.825,768.208 752.971,778.528 766.683 C 793.427 786.477,840.932 803.989,897.000 810.356 C 962.228 817.763,1078.526 802.171,1180.500 772.346 C 1195.350 768.003,1223.700 759.963,1243.500 754.479 C 1263.300 748.995,1298.400 738.478,1321.500 731.108 C 1344.600 723.738,1387.800 712.090,1417.500 705.224 C 1447.200 698.358,1493.100 687.509,1519.500 681.114 C 1584.684 665.326,1582.214 665.746,1633.268 661.802 C 1691.908 657.272,1715.914 658.398,1794.000 669.343 M1998.000 919.716 C 1998.000 922.693,2032.081 963.000,2034.598 963.000 C 2041.524 963.000,2030.655 945.211,2014.797 930.594 C 2001.590 918.420,1998.000 916.095,1998.000 919.716 M1966.594 938.848 C 1965.626 940.415,1972.983 950.689,1982.943 961.680 C 1992.903 972.670,2003.223 985.337,2005.876 989.828 C 2008.528 994.319,2013.437 999.703,2016.784 1001.793 C 2022.547 1005.393,2022.764 1005.063,2020.883 995.547 C 2018.296 982.459,2000.161 956.216,1985.896 944.918 C 1974.079 935.559,1969.514 934.123,1966.594 938.848 M1781.918 971.024 C 1764.638 986.988,1718.100 1033.041,1678.500 1073.365 C 1638.900 1113.689,1574.775 1175.870,1536.000 1211.546 C 1497.225 1247.223,1451.696 1289.699,1434.824 1305.938 L 1404.147 1335.464 1386.276 1321.712 C 1325.039 1274.592,1229.371 1175.102,1172.075 1098.955 C 1159.434 1082.156,1147.699 1067.550,1145.997 1066.498 C 1144.295 1065.446,1143.679 1063.329,1144.628 1061.793 C 1148.807 1055.032,1157.648 1060.488,1172.979 1079.290 C 1200.305 1112.802,1267.193 1182.542,1292.109 1203.499 C 1332.249 1237.261,1371.440 1266.000,1377.340 1266.000 C 1388.892 1266.000,1382.200 1256.642,1352.250 1230.914 C 1304.272 1189.701,1230.749 1117.712,1185.354 1067.500 C 1173.397 1054.275,1173.049 1053.389,1179.069 1051.478 C 1184.908 1049.625,1193.599 1056.085,1193.905 1062.506 C 1194.033 1065.200,1260.107 1124.238,1282.154 1141.358 C 1298.493 1154.045,1308.000 1158.211,1308.000 1152.683 C 1308.000 1151.408,1294.532 1138.438,1278.070 1123.860 C 1247.869 1097.114,1225.261 1074.659,1210.502 1056.750 C 1203.501 1048.255,1203.177 1047.024,1207.983 1047.183 C 1211.017 1047.284,1217.601 1053.022,1222.614 1059.933 C 1232.933 1074.161,1275.859 1110.000,1282.582 1110.000 C 1291.906 1110.000,1286.060 1100.060,1260.127 1071.814 C 1245.347 1055.716,1234.210 1041.633,1235.377 1040.518 C 1239.510 1036.572,1354.625 1013.926,1477.500 992.886 C 1591.807 973.314,1629.135 966.601,1650.000 961.862 C 1666.582 958.097,1729.432 947.869,1759.500 944.044 C 1764.450 943.414,1778.588 942.697,1790.918 942.449 L 1813.336 942.000 1781.918 971.024 M1891.500 953.026 C 1919.489 960.051,1938.495 970.467,1957.772 989.342 C 1981.639 1012.712,1993.199 1034.282,1991.229 1051.766 C 1989.095 1070.693,1982.624 1078.587,1963.320 1085.810 C 1930.816 1097.971,1845.706 1100.821,1777.500 1092.032 C 1765.950 1090.543,1743.154 1088.438,1726.842 1087.352 L 1697.184 1085.379 1741.029 1043.438 C 1765.144 1020.371,1796.716 991.886,1811.187 980.139 C 1825.659 968.392,1840.031 955.590,1843.125 951.690 C 1849.362 943.829,1855.540 944.000,1891.500 953.026 M2200.350 980.352 C 2198.783 981.646,2189.783 987.853,2180.352 994.147 C 2155.261 1010.890,2103.296 1063.833,2096.576 1079.499 C 2085.381 1105.595,2089.246 1107.454,2124.725 1093.034 C 2150.772 1082.447,2154.459 1081.747,2184.000 1081.781 C 2201.325 1081.801,2225.625 1083.637,2238.000 1085.861 L 2260.500 1089.905 2239.500 1096.448 C 2186.327 1113.015,2151.506 1136.968,2080.500 1205.826 C 2038.306 1246.744,2020.837 1259.708,1985.855 1276.068 C 1930.061 1302.160,1925.318 1303.213,1862.965 1303.365 L 1807.430 1303.500 1787.726 1293.813 C 1768.423 1284.324,1761.000 1275.894,1761.000 1263.459 C 1761.000 1253.167,1777.157 1232.975,1790.601 1226.467 C 1802.846 1220.539,1806.938 1220.224,1849.839 1221.899 C 1902.738 1223.965,1915.743 1221.430,1938.537 1204.610 C 1949.126 1196.795,1954.909 1189.246,1962.083 1173.876 C 1999.399 1093.917,2005.986 1082.613,2020.038 1074.417 C 2027.503 1070.063,2047.866 1053.364,2065.287 1037.310 C 2082.709 1021.255,2103.500 1004.807,2111.491 1000.758 C 2126.202 993.303,2158.265 982.335,2172.000 980.060 C 2185.721 977.786,2203.240 977.967,2200.350 980.352 M1836.602 996.363 C 1838.519 1002.196,1861.930 1007.511,1901.065 1011.000 C 1935.927 1014.108,1950.000 1012.064,1950.000 1003.895 C 1950.000 996.658,1941.238 995.232,1887.371 993.704 C 1843.936 992.472,1835.469 992.915,1836.602 996.363 M1821.087 1025.775 C 1815.340 1029.549,1816.601 1030.399,1834.500 1034.817 C 1869.424 1043.436,1942.531 1042.318,1946.064 1033.111 C 1946.987 1030.708,1947.197 1028.197,1946.533 1027.533 C 1943.711 1024.711,1825.234 1023.051,1821.087 1025.775 M1771.791 1052.530 C 1770.713 1054.273,1772.232 1056.936,1775.166 1058.448 C 1786.315 1064.194,1842.478 1069.500,1892.143 1069.500 C 1937.246 1069.500,1944.448 1068.838,1949.014 1064.271 C 1952.295 1060.991,1953.173 1058.035,1951.371 1056.338 C 1947.050 1052.267,1774.218 1048.602,1771.791 1052.530 M1722.000 1107.208 C 1739.325 1108.677,1757.550 1110.539,1762.500 1111.345 C 1767.450 1112.151,1799.790 1114.282,1834.366 1116.080 C 1899.112 1119.447,1934.542 1117.365,1964.150 1108.455 C 1971.217 1106.328,1977.000 1105.160,1977.000 1105.859 C 1977.000 1106.559,1972.935 1116.098,1967.966 1127.057 L 1958.931 1146.981 1952.216 1140.866 C 1939.935 1129.682,1931.048 1126.936,1908.000 1127.205 C 1876.168 1127.577,1838.314 1139.403,1804.593 1159.510 C 1764.988 1183.127,1747.032 1190.525,1712.330 1197.526 C 1682.654 1203.513,1680.498 1203.571,1664.161 1198.821 C 1649.030 1194.422,1645.844 1192.047,1636.529 1178.215 C 1630.738 1169.616,1626.000 1161.237,1626.000 1159.596 C 1626.000 1157.955,1638.479 1144.082,1653.731 1128.766 C 1672.337 1110.083,1682.949 1101.514,1685.981 1102.728 C 1688.466 1103.722,1704.675 1105.738,1722.000 1107.208 M1693.538 1130.938 C 1690.588 1135.712,1697.613 1145.789,1705.224 1147.699 C 1716.331 1150.487,1729.500 1148.015,1729.500 1143.142 C 1729.500 1140.631,1723.146 1136.506,1714.500 1133.404 C 1697.072 1127.153,1695.958 1127.022,1693.538 1130.938 M1659.470 1147.726 C 1660.057 1150.773,1667.147 1157.353,1675.226 1162.348 C 1687.229 1169.769,1693.810 1171.615,1711.208 1172.441 C 1727.104 1173.197,1734.021 1172.269,1738.500 1168.783 C 1743.681 1164.751,1743.886 1163.703,1740.000 1161.103 C 1737.525 1159.447,1729.054 1158.071,1721.175 1158.046 C 1713.296 1158.021,1699.121 1155.161,1689.675 1151.692 C 1662.795 1141.818,1658.217 1141.217,1659.470 1147.726 M1932.197 1152.106 C 1945.739 1159.353,1934.248 1183.472,1912.158 1194.165 C 1898.657 1200.701,1894.678 1201.101,1850.209 1200.386 C 1800.989 1199.594,1778.449 1203.319,1769.864 1213.664 C 1765.291 1219.174,1761.000 1219.236,1761.000 1213.794 C 1761.000 1204.350,1852.043 1158.451,1885.500 1151.027 C 1897.378 1148.392,1926.515 1149.065,1932.197 1152.106 M1900.823 1167.058 C 1875.837 1179.209,1873.006 1183.098,1890.476 1181.265 C 1905.358 1179.704,1923.000 1169.414,1923.000 1162.296 C 1923.000 1156.648,1921.615 1156.945,1900.823 1167.058 M2012.701 1211.034 C 1983.221 1228.839,1938.266 1248.675,1919.551 1252.135 C 1908.496 1254.178,1900.388 1260.388,1904.026 1264.026 C 1907.951 1267.951,1934.419 1265.877,1950.348 1260.396 C 1990.910 1246.441,2046.000 1211.511,2046.000 1199.748 C 2046.000 1196.587,2044.853 1194.000,2043.451 1194.000 C 2042.049 1194.000,2028.211 1201.665,2012.701 1211.034 M1809.000 1250.285 C 1809.000 1264.989,1836.379 1282.743,1855.583 1280.491 C 1870.159 1278.782,1866.828 1273.384,1847.653 1267.640 C 1837.502 1264.599,1824.652 1258.121,1819.098 1253.245 C 1810.056 1245.305,1809.000 1244.996,1809.000 1250.285 " stroke="none" fill="black" fill-rule="evenodd"/></svg>